<mxfile host="app.diagrams.net" agent="Mozilla/5.0 (Windows NT 10.0; Win64; x64) AppleWebKit/537.36 (KHTML, like Gecko) Chrome/127.0.0.0 Safari/537.36" version="24.7.7">
  <diagram name="第 1 页" id="FJ9x06smxLAuVixQU4Vo">
    <mxGraphModel dx="1221" dy="725" grid="1" gridSize="10" guides="1" tooltips="1" connect="1" arrows="1" fold="1" page="1" pageScale="1" pageWidth="827" pageHeight="1169" math="0" shadow="0">
      <root>
        <mxCell id="0" />
        <mxCell id="1" parent="0" />
        <mxCell id="j5oolsuB6i_QtKKpXRYJ-17" style="edgeStyle=orthogonalEdgeStyle;rounded=0;orthogonalLoop=1;jettySize=auto;html=1;exitX=0;exitY=0.5;exitDx=0;exitDy=0;entryX=1;entryY=0.5;entryDx=0;entryDy=0;" edge="1" parent="1" source="j5oolsuB6i_QtKKpXRYJ-1" target="j5oolsuB6i_QtKKpXRYJ-3">
          <mxGeometry relative="1" as="geometry" />
        </mxCell>
        <mxCell id="j5oolsuB6i_QtKKpXRYJ-18" style="edgeStyle=orthogonalEdgeStyle;rounded=0;orthogonalLoop=1;jettySize=auto;html=1;exitX=1;exitY=0.5;exitDx=0;exitDy=0;entryX=0;entryY=0.5;entryDx=0;entryDy=0;" edge="1" parent="1" source="j5oolsuB6i_QtKKpXRYJ-1" target="j5oolsuB6i_QtKKpXRYJ-2">
          <mxGeometry relative="1" as="geometry" />
        </mxCell>
        <mxCell id="j5oolsuB6i_QtKKpXRYJ-19" style="edgeStyle=orthogonalEdgeStyle;rounded=0;orthogonalLoop=1;jettySize=auto;html=1;exitX=0.5;exitY=1;exitDx=0;exitDy=0;" edge="1" parent="1" source="j5oolsuB6i_QtKKpXRYJ-1" target="j5oolsuB6i_QtKKpXRYJ-4">
          <mxGeometry relative="1" as="geometry" />
        </mxCell>
        <mxCell id="j5oolsuB6i_QtKKpXRYJ-1" value="&lt;font style=&quot;font-size: 16px;&quot;&gt;&lt;b&gt;标绘主流程&lt;/b&gt;&lt;/font&gt;" style="rounded=1;whiteSpace=wrap;html=1;" vertex="1" parent="1">
          <mxGeometry x="360" y="310" width="120" height="60" as="geometry" />
        </mxCell>
        <mxCell id="j5oolsuB6i_QtKKpXRYJ-8" style="edgeStyle=orthogonalEdgeStyle;rounded=0;orthogonalLoop=1;jettySize=auto;html=1;exitX=1;exitY=0.5;exitDx=0;exitDy=0;entryX=0;entryY=0.5;entryDx=0;entryDy=0;endArrow=none;endFill=0;" edge="1" parent="1" source="j5oolsuB6i_QtKKpXRYJ-2" target="j5oolsuB6i_QtKKpXRYJ-5">
          <mxGeometry relative="1" as="geometry">
            <Array as="points">
              <mxPoint x="660" y="340" />
              <mxPoint x="660" y="260" />
            </Array>
          </mxGeometry>
        </mxCell>
        <mxCell id="j5oolsuB6i_QtKKpXRYJ-9" style="edgeStyle=orthogonalEdgeStyle;rounded=0;orthogonalLoop=1;jettySize=auto;html=1;exitX=1;exitY=0.5;exitDx=0;exitDy=0;entryX=0;entryY=0.5;entryDx=0;entryDy=0;endArrow=none;endFill=0;" edge="1" parent="1" source="j5oolsuB6i_QtKKpXRYJ-2" target="j5oolsuB6i_QtKKpXRYJ-6">
          <mxGeometry relative="1" as="geometry" />
        </mxCell>
        <mxCell id="j5oolsuB6i_QtKKpXRYJ-10" style="edgeStyle=orthogonalEdgeStyle;rounded=0;orthogonalLoop=1;jettySize=auto;html=1;exitX=1;exitY=0.5;exitDx=0;exitDy=0;entryX=0;entryY=0.5;entryDx=0;entryDy=0;endArrow=none;endFill=0;" edge="1" parent="1" source="j5oolsuB6i_QtKKpXRYJ-2" target="j5oolsuB6i_QtKKpXRYJ-7">
          <mxGeometry relative="1" as="geometry">
            <Array as="points">
              <mxPoint x="660" y="340" />
              <mxPoint x="660" y="420" />
            </Array>
          </mxGeometry>
        </mxCell>
        <mxCell id="j5oolsuB6i_QtKKpXRYJ-2" value="&lt;b&gt;基础标绘&lt;/b&gt;" style="rounded=1;whiteSpace=wrap;html=1;" vertex="1" parent="1">
          <mxGeometry x="520" y="310" width="120" height="60" as="geometry" />
        </mxCell>
        <mxCell id="j5oolsuB6i_QtKKpXRYJ-12" style="edgeStyle=orthogonalEdgeStyle;rounded=0;orthogonalLoop=1;jettySize=auto;html=1;exitX=0;exitY=0.5;exitDx=0;exitDy=0;entryX=1;entryY=0.5;entryDx=0;entryDy=0;endArrow=none;endFill=0;" edge="1" parent="1" source="j5oolsuB6i_QtKKpXRYJ-3" target="j5oolsuB6i_QtKKpXRYJ-11">
          <mxGeometry relative="1" as="geometry" />
        </mxCell>
        <mxCell id="j5oolsuB6i_QtKKpXRYJ-14" style="edgeStyle=orthogonalEdgeStyle;rounded=0;orthogonalLoop=1;jettySize=auto;html=1;exitX=0;exitY=0.5;exitDx=0;exitDy=0;endArrow=none;endFill=0;" edge="1" parent="1" source="j5oolsuB6i_QtKKpXRYJ-3" target="j5oolsuB6i_QtKKpXRYJ-13">
          <mxGeometry relative="1" as="geometry" />
        </mxCell>
        <mxCell id="j5oolsuB6i_QtKKpXRYJ-3" value="&lt;b&gt;军事标绘&lt;/b&gt;" style="rounded=1;whiteSpace=wrap;html=1;" vertex="1" parent="1">
          <mxGeometry x="200" y="310" width="120" height="60" as="geometry" />
        </mxCell>
        <mxCell id="j5oolsuB6i_QtKKpXRYJ-21" style="edgeStyle=orthogonalEdgeStyle;rounded=0;orthogonalLoop=1;jettySize=auto;html=1;exitX=0.5;exitY=1;exitDx=0;exitDy=0;entryX=0.5;entryY=0;entryDx=0;entryDy=0;endArrow=none;endFill=0;" edge="1" parent="1" source="j5oolsuB6i_QtKKpXRYJ-4" target="j5oolsuB6i_QtKKpXRYJ-20">
          <mxGeometry relative="1" as="geometry">
            <Array as="points">
              <mxPoint x="420" y="470" />
              <mxPoint x="260" y="470" />
            </Array>
          </mxGeometry>
        </mxCell>
        <mxCell id="j5oolsuB6i_QtKKpXRYJ-23" style="edgeStyle=orthogonalEdgeStyle;rounded=0;orthogonalLoop=1;jettySize=auto;html=1;exitX=0.5;exitY=1;exitDx=0;exitDy=0;endArrow=none;endFill=0;" edge="1" parent="1" source="j5oolsuB6i_QtKKpXRYJ-4" target="j5oolsuB6i_QtKKpXRYJ-22">
          <mxGeometry relative="1" as="geometry" />
        </mxCell>
        <mxCell id="j5oolsuB6i_QtKKpXRYJ-25" style="edgeStyle=orthogonalEdgeStyle;rounded=0;orthogonalLoop=1;jettySize=auto;html=1;exitX=0.5;exitY=1;exitDx=0;exitDy=0;entryX=0.5;entryY=0;entryDx=0;entryDy=0;endArrow=none;endFill=0;" edge="1" parent="1" source="j5oolsuB6i_QtKKpXRYJ-4" target="j5oolsuB6i_QtKKpXRYJ-24">
          <mxGeometry relative="1" as="geometry">
            <Array as="points">
              <mxPoint x="420" y="470" />
              <mxPoint x="580" y="470" />
            </Array>
          </mxGeometry>
        </mxCell>
        <mxCell id="j5oolsuB6i_QtKKpXRYJ-4" value="&lt;b&gt;模型标绘&lt;/b&gt;" style="rounded=1;whiteSpace=wrap;html=1;" vertex="1" parent="1">
          <mxGeometry x="360" y="400" width="120" height="60" as="geometry" />
        </mxCell>
        <mxCell id="j5oolsuB6i_QtKKpXRYJ-5" value="标绘工具选择" style="shape=process;whiteSpace=wrap;html=1;backgroundOutline=1;" vertex="1" parent="1">
          <mxGeometry x="670" y="230" width="120" height="60" as="geometry" />
        </mxCell>
        <mxCell id="j5oolsuB6i_QtKKpXRYJ-6" value="基础图形绘制" style="shape=process;whiteSpace=wrap;html=1;backgroundOutline=1;" vertex="1" parent="1">
          <mxGeometry x="670" y="310" width="120" height="60" as="geometry" />
        </mxCell>
        <mxCell id="j5oolsuB6i_QtKKpXRYJ-7" value="结果调整确认" style="shape=process;whiteSpace=wrap;html=1;backgroundOutline=1;" vertex="1" parent="1">
          <mxGeometry x="670" y="390" width="120" height="60" as="geometry" />
        </mxCell>
        <mxCell id="j5oolsuB6i_QtKKpXRYJ-11" value="军事符号选择" style="shape=process;whiteSpace=wrap;html=1;backgroundOutline=1;" vertex="1" parent="1">
          <mxGeometry x="40" y="230" width="120" height="60" as="geometry" />
        </mxCell>
        <mxCell id="j5oolsuB6i_QtKKpXRYJ-13" value="符号定位和属性" style="shape=process;whiteSpace=wrap;html=1;backgroundOutline=1;" vertex="1" parent="1">
          <mxGeometry x="40" y="310" width="120" height="60" as="geometry" />
        </mxCell>
        <mxCell id="j5oolsuB6i_QtKKpXRYJ-16" style="edgeStyle=orthogonalEdgeStyle;rounded=0;orthogonalLoop=1;jettySize=auto;html=1;exitX=1;exitY=0.5;exitDx=0;exitDy=0;entryX=0;entryY=0.5;entryDx=0;entryDy=0;endArrow=none;endFill=0;" edge="1" parent="1" source="j5oolsuB6i_QtKKpXRYJ-15" target="j5oolsuB6i_QtKKpXRYJ-3">
          <mxGeometry relative="1" as="geometry" />
        </mxCell>
        <mxCell id="j5oolsuB6i_QtKKpXRYJ-15" value="军事符号标准" style="shape=process;whiteSpace=wrap;html=1;backgroundOutline=1;" vertex="1" parent="1">
          <mxGeometry x="40" y="390" width="120" height="60" as="geometry" />
        </mxCell>
        <mxCell id="j5oolsuB6i_QtKKpXRYJ-20" value="三维模型选择" style="shape=process;whiteSpace=wrap;html=1;backgroundOutline=1;" vertex="1" parent="1">
          <mxGeometry x="200" y="490" width="120" height="60" as="geometry" />
        </mxCell>
        <mxCell id="j5oolsuB6i_QtKKpXRYJ-22" value="模型放置调整" style="shape=process;whiteSpace=wrap;html=1;backgroundOutline=1;" vertex="1" parent="1">
          <mxGeometry x="360" y="490" width="120" height="60" as="geometry" />
        </mxCell>
        <mxCell id="j5oolsuB6i_QtKKpXRYJ-24" value="模型确认保存" style="shape=process;whiteSpace=wrap;html=1;backgroundOutline=1;" vertex="1" parent="1">
          <mxGeometry x="520" y="490" width="120" height="60" as="geometry" />
        </mxCell>
      </root>
    </mxGraphModel>
  </diagram>
</mxfile>
